<mxfile host="app.diagrams.net" modified="2024-05-10T07:31:13.061Z" agent="Mozilla/5.0 (Windows NT 10.0; Win64; x64) AppleWebKit/537.36 (KHTML, like Gecko) Chrome/124.0.0.0 Safari/537.36" etag="0aKNqdMJT-HkqnezJb8v" version="24.3.1" type="github">
  <diagram id="C5RBs43oDa-KdzZeNtuy" name="Page-1">
    <mxGraphModel dx="423" dy="546" grid="0" gridSize="10" guides="1" tooltips="1" connect="1" arrows="1" fold="1" page="0" pageScale="1" pageWidth="827" pageHeight="1169" background="#000000" math="0" shadow="0">
      <root>
        <mxCell id="WIyWlLk6GJQsqaUBKTNV-0" />
        <mxCell id="WIyWlLk6GJQsqaUBKTNV-1" parent="WIyWlLk6GJQsqaUBKTNV-0" />
        <mxCell id="WIyWlLk6GJQsqaUBKTNV-4" value="Yes" style="rounded=0;html=1;jettySize=auto;orthogonalLoop=1;fontSize=11;endArrow=block;endFill=0;endSize=8;strokeWidth=1;shadow=0;labelBackgroundColor=#000000;edgeStyle=orthogonalEdgeStyle;strokeColor=#FFFFFF;fontColor=#FFFFFF;labelBorderColor=#FFFFFF;" parent="WIyWlLk6GJQsqaUBKTNV-1" edge="1">
          <mxGeometry y="20" relative="1" as="geometry">
            <mxPoint as="offset" />
            <mxPoint x="761" y="593" as="sourcePoint" />
            <mxPoint x="761" y="633" as="targetPoint" />
          </mxGeometry>
        </mxCell>
        <mxCell id="Ld5HJ-N-US03cM2HVp6S-0" value="确定问题" style="rounded=1;whiteSpace=wrap;html=1;fillColor=#000000;strokeColor=#FFFFFF;fontColor=#FFFFFF;" vertex="1" parent="WIyWlLk6GJQsqaUBKTNV-1">
          <mxGeometry x="492.5" y="86" width="89" height="30" as="geometry" />
        </mxCell>
        <mxCell id="Ld5HJ-N-US03cM2HVp6S-1" value="" style="endArrow=block;html=1;rounded=0;strokeColor=#FFFFFF;endFill=0;exitX=0.5;exitY=1;exitDx=0;exitDy=0;entryX=0.5;entryY=0;entryDx=0;entryDy=0;" edge="1" parent="WIyWlLk6GJQsqaUBKTNV-1" source="Ld5HJ-N-US03cM2HVp6S-0" target="Ld5HJ-N-US03cM2HVp6S-2">
          <mxGeometry width="50" height="50" relative="1" as="geometry">
            <mxPoint x="652" y="105" as="sourcePoint" />
            <mxPoint x="633" y="175" as="targetPoint" />
          </mxGeometry>
        </mxCell>
        <mxCell id="Ld5HJ-N-US03cM2HVp6S-2" value="语言描述 / 文本" style="rounded=1;whiteSpace=wrap;html=1;fillColor=#000000;strokeColor=#FFFFFF;fontColor=#FFFFFF;" vertex="1" parent="WIyWlLk6GJQsqaUBKTNV-1">
          <mxGeometry x="477" y="166" width="120" height="30" as="geometry" />
        </mxCell>
        <mxCell id="Ld5HJ-N-US03cM2HVp6S-3" value="ChatGPT / Kimi / Claude" style="rounded=1;whiteSpace=wrap;html=1;fillColor=#000000;strokeColor=#FFFFFF;fontColor=#FFFFFF;" vertex="1" parent="WIyWlLk6GJQsqaUBKTNV-1">
          <mxGeometry x="462" y="237" width="150" height="30" as="geometry" />
        </mxCell>
        <mxCell id="Ld5HJ-N-US03cM2HVp6S-4" value="文本输出" style="rounded=1;whiteSpace=wrap;html=1;fillColor=#000000;strokeColor=#FFFFFF;fontColor=#FFFFFF;" vertex="1" parent="WIyWlLk6GJQsqaUBKTNV-1">
          <mxGeometry x="496" y="323" width="82" height="30" as="geometry" />
        </mxCell>
        <mxCell id="Ld5HJ-N-US03cM2HVp6S-5" value="结束" style="rounded=1;whiteSpace=wrap;html=1;fillColor=#000000;strokeColor=#FFFFFF;fontColor=#FFFFFF;" vertex="1" parent="WIyWlLk6GJQsqaUBKTNV-1">
          <mxGeometry x="504" y="391" width="66" height="30" as="geometry" />
        </mxCell>
        <mxCell id="Ld5HJ-N-US03cM2HVp6S-6" value="" style="endArrow=block;html=1;rounded=0;strokeColor=#FFFFFF;endFill=0;exitX=0.5;exitY=1;exitDx=0;exitDy=0;entryX=0.5;entryY=0;entryDx=0;entryDy=0;" edge="1" parent="WIyWlLk6GJQsqaUBKTNV-1" source="Ld5HJ-N-US03cM2HVp6S-2" target="Ld5HJ-N-US03cM2HVp6S-3">
          <mxGeometry width="50" height="50" relative="1" as="geometry">
            <mxPoint x="706" y="77" as="sourcePoint" />
            <mxPoint x="687" y="147" as="targetPoint" />
          </mxGeometry>
        </mxCell>
        <mxCell id="Ld5HJ-N-US03cM2HVp6S-7" value="" style="endArrow=block;html=1;rounded=0;strokeColor=#FFFFFF;endFill=0;exitX=0.5;exitY=1;exitDx=0;exitDy=0;entryX=0.5;entryY=0;entryDx=0;entryDy=0;" edge="1" parent="WIyWlLk6GJQsqaUBKTNV-1" source="Ld5HJ-N-US03cM2HVp6S-3" target="Ld5HJ-N-US03cM2HVp6S-4">
          <mxGeometry width="50" height="50" relative="1" as="geometry">
            <mxPoint x="716" y="87" as="sourcePoint" />
            <mxPoint x="697" y="157" as="targetPoint" />
          </mxGeometry>
        </mxCell>
        <mxCell id="Ld5HJ-N-US03cM2HVp6S-8" value="" style="endArrow=block;html=1;rounded=0;strokeColor=#FFFFFF;endFill=0;exitX=0.5;exitY=1;exitDx=0;exitDy=0;entryX=0.5;entryY=0;entryDx=0;entryDy=0;" edge="1" parent="WIyWlLk6GJQsqaUBKTNV-1" source="Ld5HJ-N-US03cM2HVp6S-4" target="Ld5HJ-N-US03cM2HVp6S-5">
          <mxGeometry width="50" height="50" relative="1" as="geometry">
            <mxPoint x="726" y="107" as="sourcePoint" />
            <mxPoint x="707" y="177" as="targetPoint" />
          </mxGeometry>
        </mxCell>
        <mxCell id="Ld5HJ-N-US03cM2HVp6S-10" value="" style="edgeStyle=elbowEdgeStyle;elbow=horizontal;endArrow=block;html=1;curved=0;rounded=0;endSize=6;startSize=6;strokeColor=#FFFFFF;endFill=0;exitX=1;exitY=0.5;exitDx=0;exitDy=0;entryX=1;entryY=0.5;entryDx=0;entryDy=0;" edge="1" parent="WIyWlLk6GJQsqaUBKTNV-1" source="Ld5HJ-N-US03cM2HVp6S-4" target="Ld5HJ-N-US03cM2HVp6S-3">
          <mxGeometry width="50" height="50" relative="1" as="geometry">
            <mxPoint x="604" y="327" as="sourcePoint" />
            <mxPoint x="654" y="277" as="targetPoint" />
            <Array as="points">
              <mxPoint x="693" y="294" />
            </Array>
          </mxGeometry>
        </mxCell>
        <mxCell id="Ld5HJ-N-US03cM2HVp6S-11" value="新一轮输入" style="rounded=1;whiteSpace=wrap;html=1;fillColor=#000000;strokeColor=#FFFFFF;fontColor=#FFFFFF;" vertex="1" parent="WIyWlLk6GJQsqaUBKTNV-1">
          <mxGeometry x="653" y="286" width="82" height="30" as="geometry" />
        </mxCell>
      </root>
    </mxGraphModel>
  </diagram>
</mxfile>
